<svg width="31" height="31" viewBox="0 0 31 31" fill="none" xmlns="http://www.w3.org/2000/svg">
<circle cx="15.5" cy="15.5" r="15.5" fill="white"/>
<path d="M22 13H21.18L19.48 8.32C19.3393 7.9341 19.0836 7.60065 18.7474 7.36462C18.4112 7.12858 18.0108 7.00132 17.6 7H16C15.45 7 15 7.45 15 8C15 8.55 15.45 9 16 9H17.6L19.06 13H14.25L13.89 12H13.98C14.53 12 14.98 11.55 14.98 11C14.98 10.45 14.53 10 13.98 10H11C10.45 10 10 10.45 10 11C10 11.55 10.45 12 11 12H11.75L13.57 17H12.9C12.46 14.77 10.59 13.12 8.25 13.01C5.45 12.87 3 15.2 3 18C3 20.8 5.2 23 8 23C10.46 23 12.45 21.31 12.9 19H17.1C17.54 21.23 19.41 22.88 21.75 22.99C24.55 23.12 27 20.8 27 17.99C27 15.2 24.8 13 22 13ZM9 19H10.82C10.4 20.23 9.22 21.08 7.8 20.99C6.31 20.9 5.07 19.64 5 18.14C4.93 16.39 6.27 15 8 15C9.33 15 10.42 15.83 10.82 17H9C8.45 17 8 17.45 8 18C8 18.55 8.45 19 9 19ZM17.1 17H15.7L14.97 15H18C17.56 15.58 17.24 16.25 17.1 17ZM21.88 21C20.34 20.94 19.04 19.63 19 18.08C18.98 17.12 19.39 16.28 20.05 15.72L20.67 17.42C20.86 17.94 21.43 18.21 21.95 18.02C22.47 17.83 22.74 17.26 22.55 16.74L21.92 15.01L21.93 15C22.3309 14.9863 22.7305 15.0541 23.1045 15.1991C23.4785 15.3441 23.8193 15.5634 24.1062 15.8438C24.3932 16.1242 24.6203 16.4598 24.7739 16.8304C24.9275 17.201 25.0044 17.5989 25 18C25 19.72 23.62 21.06 21.88 21ZM14 26H10L16 29V27H20L14 24V26Z" fill="#FFBB00"/>
</svg>
